:SAMPLES-PER-SECOND 30
:FULLY-SPECIFIED
:DEGREES
1361
root  35.0894 39.3449 7.48881 -173.565 80.26 -176.373
RightUpLeg  -8.14703 -25.9517 -13.3039
RightLeg  17.6576 -9.3232 -1.77788
RightFoot  -1.44242 -0.767481 8.73449
RightToes  0.000481921 0.542163 -0.142578
Spine  26.5313 -5.05119 -17.2315
Spine1  -5.0277 -13.5072 30.8091
HEad  7.89785 8.38785 -1.8353
LeftShoulder1  5.06062 -7.74347 -38.7671
LeftArm  -7.24439 42.791 -39.8653
LeftForeArm  -174.941 -71.7475 -152.834
LeftHand  -0.25398 0.0180481 5.50724
RightShoulder  0.445347 -1.94772 22.2937
RightArm  -19.9401 -36.4605 38.0727
RightForeArm  -156.848 54.3991 168.435
RightHand  0.258115 0.712543 4.74709
LeftUpLeg  -17.5806 13.9879 2.15378
LeftLeg  26.1015 3.13523 2.01123
LeftFoot  -7.17654 0.100708 -1.58937
LeftToes  1.06244e-005 4.65869e-005 -8.65518e-006
1362
root  34.9427 39.3616 7.8901 -174.651 73.398 -178.673
RightUpLeg  -7.96177 -30.8687 -13.4231
RightLeg  18.8518 -11.0006 -2.55555
RightFoot  -2.13611 -0.754303 9.16994
RightToes  0.000481921 0.542163 -0.142578
Spine  26.3576 -3.1967 -14.8863
Spine1  -6.36995 -10.513 29.3672
HEad  5.59892 -2.97262 0.520031
LeftShoulder1  5.05133 -7.96629 -37.8637
LeftArm  -2.71723 41.6737 -37.825
LeftForeArm  -174.788 -70.9184 -154.066
LeftHand  -0.25398 0.0180481 5.50724
RightShoulder  0.304824 -2.43439 22.1311
RightArm  -26.1406 -35.1793 34.26
RightForeArm  -163.555 56.1839 167.152
RightHand  0.0912262 -1.56595 3.22961
LeftUpLeg  -19.7135 9.75115 1.62539
LeftLeg  24.8842 1.14256 0.916534
LeftFoot  -5.45095 0.0878602 -1.07391
LeftToes  1.06244e-005 4.65869e-005 -8.65518e-006
1363
root  34.7394 39.3879 8.26911 -175.649 67.1953 179.392
RightUpLeg  -7.73747 -35.1804 -13.6915
RightLeg  19.8633 -12.4623 -3.46151
RightFoot  -2.64535 -0.750394 9.60877
RightToes  0.000481921 0.542163 -0.142578
Spine  25.981 -1.68166 -11.1219
Spine1  -6.46132 -7.5611 25.1753
HEad  2.4005 -13.262 3.44071
LeftShoulder1  5.33859 -8.77092 -37.3412
LeftArm  1.25796 36.9759 -33.9905
LeftForeArm  -174.015 -69.7977 -155.656
LeftHand  -0.25398 0.0180481 5.50724
RightShoulder  0.225561 -2.68264 21.0726
RightArm  -27.948 -30.568 27.4333
RightForeArm  -171.139 60.6405 164.082
RightHand  0.0174552 -2.27196 1.33948
LeftUpLeg  -21.1557 6.24797 0.998934
LeftLeg  23.1018 -1.02285 -0.146557
LeftFoot  -3.52065 0.0668322 -0.657725
LeftToes  1.06244e-005 4.65869e-005 -8.65518e-006
1364
root  34.4543 39.4062 8.6185 -176.633 62.4328 178.103
RightUpLeg  -7.51578 -38.784 -14.0593
RightLeg  20.8385 -12.9695 -4.48029
RightFoot  -2.98487 -0.738859 9.81104
RightToes  0.000481921 0.542163 -0.142578
Spine  25.9433 -0.600427 -6.05907
Spine1  -5.37288 -4.67917 18.3173
HEad  -1.30414 -21.5594 7.04702
LeftShoulder1  5.70323 -9.63892 -37.2586
LeftArm  2.86439 29.3663 -30.3015
LeftForeArm  -173.026 -69.0306 -156.706
LeftHand  -0.25398 0.0180481 5.50724
RightShoulder  0.256677 -2.5122 19.3705
RightArm  -27.3289 -23.2032 18.5721
RightForeArm  179.942 68.1234 156.848
RightHand  0.00603948 -2.71919 1.04262
LeftUpLeg  -21.7294 3.81043 0.360702
LeftLeg  21.2764 -2.99555 -0.961427
LeftFoot  -1.63815 0.0516374 -0.449108
LeftToes  1.06244e-005 4.65869e-005 -8.65518e-006
1365
root  34.072 39.3949 8.96311 -177.863 59.5769 177.07
RightUpLeg  -7.86657 -40.6434 -14.2796
RightLeg  22.1381 -13.1912 -5.7502
RightFoot  -3.26032 -0.710999 9.72693
RightToes  0.000481921 0.542163 -0.142578
Spine  26.6563 0.155379 -0.160005
Spine1  -3.8597 -1.58483 9.79558
HEad  -4.91996 -27.7661 10.7894
LeftShoulder1  5.82392 -10.0518 -36.8435
LeftArm  2.48881 20.3634 -28.4365
LeftForeArm  -172.792 -68.9389 -156.837
LeftHand  -0.25398 0.0180481 5.50724
RightShoulder  0.362434 -1.96059 16.7776
RightArm  -26.3164 -14.0671 9.34244
RightForeArm  156.246 77.6256 132.636
RightHand  -0.0314718 -2.34003 -0.315401
LeftUpLeg  -21.817 2.46149 -0.269112
LeftLeg  19.8375 -4.33275 -1.41022
LeftFoot  0.0279538 0.0491714 -0.468119
LeftToes  1.06244e-005 4.65869e-005 -8.65518e-006
1366
root  33.611 39.3398 9.31781 -179.259 58.7349 176.028
RightUpLeg  -9.24771 -39.4277 -14.2042
RightLeg  24.1137 -14.5412 -7.26012
RightFoot  -3.48631 -0.665715 9.32912
RightToes  0.000481921 0.542163 -0.142578
Spine  27.8817 0.598139 6.07296
Spine1  -2.15407 1.79854 0.405454
HEad  -8.03989 -32.007 14.0972
LeftShoulder1  5.7666 -10.2257 -35.9126
LeftArm  1.20977 11.8533 -28.3035
LeftForeArm  -171.465 -68.8081 -157.135
LeftHand  -0.25398 0.0180481 5.50724
RightShoulder  0.523309 -0.835219 12.6381
RightArm  -25.2394 -4.55277 1.82253
RightForeArm  77.2692 78.4432 53.1857
RightHand  -0.313782 1.08996 -5.35304
LeftUpLeg  -21.8897 2.30544 -0.871977
LeftLeg  18.949 -4.97136 -1.57634
LeftFoot  1.35721 0.0582009 -0.599747
LeftToes  1.06244e-005 4.65869e-005 -8.65518e-006
1367
root  33.1071 39.2475 9.66629 179.103 59.7547 174.797
RightUpLeg  -11.4415 -36.4164 -13.9323
RightLeg  26.4844 -15.9918 -8.70645
RightFoot  -3.57822 -0.609981 8.61527
RightToes  0.000481921 0.542163 -0.142578
Spine  29.2124 0.714039 12.0463
Spine1  0.255372 5.41032 -9.2186
HEad  -10.8852 -34.3768 16.8703
LeftShoulder1  5.86104 -10.7064 -35.1746
LeftArm  -0.84327 5.1279 -28.1194
LeftForeArm  -169.003 -67.7079 -158.582
LeftHand  -0.25398 0.0180481 5.50724
RightShoulder  0.693754 1.34642 6.82311
RightArm  -23.5926 4.28813 -3.02556
RightForeArm  41.0003 61.1347 16.4819
RightHand  -0.999793 5.84756 -10.8321
LeftUpLeg  -22.0211 3.39413 -1.4222
LeftLeg  18.5706 -5.04076 -1.56396
LeftFoot  2.28501 0.0754908 -0.748169
LeftToes  1.06244e-005 4.65869e-005 -8.65518e-006
1368
root  32.6124 39.1441 9.99294 176.908 62.2741 172.968
RightUpLeg  -14.0238 -33.2751 -13.6501
RightLeg  28.5928 -16.2521 -9.60052
RightFoot  -3.56345 -0.553212 7.76876
RightToes  0.000481921 0.542163 -0.142578
Spine  30.5841 0.706369 16.9365
Spine1  3.51166 9.286 -18.2002
HEad  -14.0726 -35.1847 19.1964
LeftShoulder1  6.1694 -11.4868 -35.0877
LeftArm  -3.74559 0.104772 -26.7598
LeftForeArm  -169.023 -65.8038 -160.408
LeftHand  -0.25398 0.0180481 5.50724
RightShoulder  0.706077 4.8477 0.177118
RightArm  -21.2198 12.2006 -6.4847
RightForeArm  34.3135 37.5617 6.33692
RightHand  -1.43149 8.22468 -12.6529
LeftUpLeg  -22.1253 5.56737 -1.97505
LeftLeg  18.4469 -4.67413 -1.41463
LeftFoot  2.89437 0.106476 -0.993215
LeftToes  1.06244e-005 4.65869e-005 -8.65518e-006
1369
root  32.2046 39.0545 10.3139 173.941 65.5668 169.919
RightUpLeg  -16.9244 -30.6193 -13.3823
RightLeg  30.1295 -15.4758 -9.72469
RightFoot  -3.63752 -0.493163 6.94606
RightToes  0.000481921 0.542163 -0.142578
Spine  32.1071 1.01398 20.0059
Spine1  6.5371 13.2387 -25.5104
HEad  -17.5142 -35.1112 20.9233
LeftShoulder1  6.48029 -12.1364 -35.3642
LeftArm  -6.56751 -3.76192 -25.2082
LeftForeArm  -171.844 -63.9537 -161.685
LeftHand  -0.25398 0.0180481 5.50724
RightShoulder  0.389892 8.85357 -6.01251
RightArm  -21.4657 18.8439 -10.2898
RightForeArm  35.5443 14.0876 2.30356
RightHand  -1.37953 8.55464 -11.899
LeftUpLeg  -22.3816 8.53545 -2.68676
LeftLeg  18.1756 -4.25302 -1.2336
LeftFoot  3.38114 0.168599 -1.46346
LeftToes  1.06244e-005 4.65869e-005 -8.65518e-006
1370
root  31.9428 38.9828 10.6508 170.823 68.384 166.038
RightUpLeg  -19.9973 -29.2935 -12.902
RightLeg  31.1661 -14.108 -9.27033
RightFoot  -3.95786 -0.418824 6.06346
RightToes  0.000481921 0.542163 -0.142578
Spine  33.5363 1.84493 21.1954
Spine1  7.98806 16.4212 -30.1551
HEad  -19.9045 -34.8083 21.5874
LeftShoulder1  6.76291 -12.5616 -36.0103
LeftArm  -8.12446 -5.93419 -24.6717
LeftForeArm  -173.322 -62.2561 -162.805
LeftHand  -0.25398 0.0180481 5.50724
RightShoulder  -0.0715822 11.2449 -10.2466
RightArm  -32.3338 24.658 -14.5676
RightForeArm  38.1911 -2.06324 0.501898
RightHand  -1.15672 7.81648 -10.5872
LeftUpLeg  -23.0658 11.5713 -3.51351
LeftLeg  17.6147 -4.28244 -1.21355
LeftFoot  3.86032 0.258626 -2.11363
LeftToes  1.06244e-005 4.65869e-005 -8.65518e-006
